<svg xmlns="http://www.w3.org/2000/svg" viewBox="0 0 1800 714" width="1800" height="714">
<path fill="#55565a" transform="translate(736.0546875,521.59765625)" d="M0 0 C7.04 5.07 13.34 10.41 15.59 19.12 C17.17 29.32 16.2 37.5 11.26 46.46 C6.41 52.62 0.83 57.88 -7.05 59.4 C-16.72 60.46 -23.26 58.6 -31.24 53.28 C-37.35 47.78 -40.71 40.46 -41.26 32.39 C-41.41 21.82 -39.88 13.43 -32.3 5.59 C-23.57 -2.59 -11.07 -6.51 0 0 Z M-28.05 9.4 C-30.88 15.6 -31.57 21.59 -31.49 28.34 C-31.49 29.22 -31.48 30.09 -31.47 31 C-31.27 39.06 -29.74 44.89 -24.8 51.34 C-20.58 54.51 -16.92 56.5 -11.53 56.31 C-5.66 55.39 -2.1 53.74 1.95 49.4 C7.58 40.27 7.19 26.61 5.2 16.28 C3.84 11.25 1.03 6.67 -3.05 3.4 C-12.12 -1.66 -21.84 1.68 -28.05 9.4 Z "/>
<path fill="#55565a" transform="translate(849.0078125,520.01171875)" d="M0 0 C2.41 1.19 4.07 1.19 6.74 1.11 C7.14 1.1 7.14 1.1 9.16 1.06 C9.47 1.05 9.47 1.05 10.99 0.99 C11.19 3.45 11.37 5.9 11.55 8.36 C11.58 8.71 11.58 8.71 11.72 10.48 C12.11 15.76 12.11 15.76 10.99 17.99 C10.33 17.99 9.67 17.99 8.99 17.99 C8.72 17.31 8.46 16.64 8.18 15.94 C5.72 10.34 3.79 6.84 -2.02 4.54 C-6.14 3.4 -8.84 3.49 -12.76 5.18 C-15.44 7.34 -16.36 8.6 -17.01 11.99 C-15.63 14.68 -15.63 14.68 -14.01 16.99 C-14.01 17.65 -14.01 18.31 -14.01 18.99 C-13.28 19.26 -12.55 19.53 -11.8 19.82 C-7.25 21.72 -3.19 24.39 0.99 26.99 C1.81 27.47 2.62 27.94 3.46 28.43 C8.83 31.71 12.59 35.06 14.99 40.99 C15.91 46.8 14.31 50.39 10.99 54.99 C8.05 58.62 5.56 59.97 0.99 60.99 C-3.84 61.37 -8.02 61.27 -12.7 59.93 C-16.51 58.85 -19.14 59.29 -23.01 59.99 C-24.01 58.99 -24.01 58.99 -24.11 55.17 C-24.1 53.59 -24.09 52.01 -24.07 50.43 C-24.07 50.02 -24.07 50.02 -24.06 47.98 C-24.04 45.98 -24.03 43.99 -24.01 41.99 C-21.01 42.99 -21.01 42.99 -19.98 44.95 C-19.68 45.75 -19.38 46.54 -19.07 47.36 C-17.59 50.92 -16.59 53.2 -13.01 54.99 C-8.01 56.95 -2.58 56.47 2.43 54.93 C4.99 52.99 4.99 52.99 6.05 49.61 C5.98 45.41 5.74 44.14 2.99 40.99 C0.12 38.78 -2.92 36.89 -6.01 34.99 C-19.58 26.62 -19.58 26.62 -24.01 19.99 C-24.81 15.67 -24.82 11.65 -22.88 7.66 C-17.72 0.38 -8.77 -4.42 0 0 Z "/>
<path fill="#55565a" transform="translate(964.3125,521.0625)" d="M0 0 C7.95 4.56 14.15 10.98 16.69 19.94 C17.93 28.79 18.01 38.08 13.24 45.89 C8.17 52.57 2.17 58.26 -6.31 59.94 C-15.7 60.85 -22.79 58.93 -30.62 53.75 C-34.04 50.18 -36.21 46.39 -38.31 41.94 C-38.68 41.18 -39.05 40.42 -39.43 39.64 C-41.71 32.67 -41.51 22.71 -38.75 15.94 C-37.62 13.89 -37.62 13.89 -36.31 11.94 C-36.08 11.59 -36.08 11.59 -34.91 9.83 C-26.54 -1.08 -12.75 -5.79 0 0 Z M-25 7.5 C-31.41 16 -31.04 26.8 -30.31 36.94 C-29.24 44.28 -26.34 50.39 -20.31 54.94 C-15.46 57.05 -11.04 57.52 -6 55.81 C-0.73 53.37 2.97 50.74 5.05 45.09 C8.28 34.11 8.49 22.67 4.38 11.81 C2.01 7.79 -0.52 4.98 -4.56 2.62 C-12.64 0.61 -18.86 1.65 -25 7.5 Z "/>
<path fill="#55565a" transform="translate(1431.125,521.40234375)" d="M0 0 C2.52 0.8 4.39 0.38 6.88 -0.4 C8.82 1.54 8.27 5.07 8.44 7.66 C8.52 8.95 8.61 10.24 8.69 11.57 C8.75 12.57 8.81 13.57 8.88 14.6 C7.88 14.6 6.89 14.6 5.88 14.6 C4.48 12.73 4.48 12.73 3.06 10.29 C0.41 6.18 -1.25 3.95 -6.12 2.6 C-12.48 1.9 -18.72 1.76 -24.37 5.07 C-28.73 8.87 -31.4 14.1 -33 19.6 C-33.04 20.59 -33.08 21.58 -33.12 22.6 C-33.16 23.35 -33.2 24.1 -33.24 24.87 C-33.53 34.97 -31.74 42.72 -25.12 50.6 C-21.16 53.93 -17.14 55.69 -11.85 55.53 C-7.89 55.12 -4.03 54.38 -0.12 53.6 C-0.18 49.83 -0.27 46.06 -0.38 42.29 C-0.39 41.21 -0.4 40.14 -0.42 39.04 C-0.45 38.01 -0.48 36.98 -0.52 35.92 C-0.54 34.97 -0.56 34.03 -0.58 33.05 C-1.28 29.92 -2.51 29.32 -5.12 27.6 C-5.12 26.94 -5.12 26.28 -5.12 25.6 C0.82 25.6 6.76 25.6 12.88 25.6 C10.88 29.6 10.88 29.6 9.88 30.6 C9.79 32.26 9.77 33.92 9.77 35.59 C9.75 36.6 9.74 37.62 9.72 38.67 C9.7 40.82 9.69 42.97 9.71 45.12 C9.55 52.93 9.55 52.93 6.26 56.2 C-3.98 60.42 -15.76 61.76 -26.27 57.5 C-34.77 53.35 -39.92 47.37 -43.12 38.6 C-45.34 31.95 -45.03 23.95 -42.16 17.53 C-37.49 8.81 -32.42 3.71 -23.94 -1.28 C-15.76 -3.69 -7.87 -3.11 0 0 Z "/>
<path fill="#55565a" transform="translate(1549.1875,520.5)" d="M0 0 C7.47 4.43 14 10.11 16.81 18.5 C19.32 28.83 18.14 38.35 13.12 47.62 C7.34 54.81 1.28 59.79 -8.04 60.81 C-16.85 61.17 -23.16 59.14 -30 53.62 C-36.12 47.97 -38.8 41.93 -39.52 33.63 C-39.7 25.93 -39.61 19.09 -35.19 12.5 C-34.96 12.15 -34.96 12.15 -33.79 10.39 C-25.97 0.21 -12.26 -5.39 0 0 Z M-24.38 8.69 C-28.61 15.26 -29.46 21.36 -29.5 29.06 C-29.51 29.77 -29.51 30.48 -29.52 31.21 C-29.41 39.49 -27.6 47.03 -22.19 53.5 C-17.78 56.41 -13.28 58.12 -7.98 57.06 C-2.12 55.35 1.79 53.09 4.88 47.6 C7.65 41.82 8.45 37 8.31 30.62 C8.3 29.75 8.29 28.88 8.28 27.98 C8.03 19.71 6.6 13.01 1.38 6.44 C-7.43 -0.22 -16.75 1.06 -24.38 8.69 Z "/>
<path fill="#55565a" transform="translate(1278,520)" d="M0 0 C3 1 3 1 4.09 2.83 C4.42 3.63 4.75 4.42 5.09 5.23 C5.46 6.11 5.83 6.99 6.21 7.89 C6.4 8.36 6.4 8.36 7.38 10.75 C7.78 11.71 8.18 12.67 8.59 13.66 C11.07 19.62 13.41 25.61 15.67 31.66 C17.75 36.88 20.07 41.98 22.41 47.09 C25 52.79 25 52.79 25 55 C26.65 55.66 28.3 56.32 30 57 C29.67 57.99 29.34 58.98 29 60 C23.39 60 17.78 60 12 60 C11.67 59.01 11.34 58.02 11 57 C11.99 56.34 12.98 55.68 14 55 C13.41 50.13 12.35 46.28 10 42 C5.77 40.62 1.29 40.78 -3.12 40.75 C-3.84 40.73 -4.56 40.71 -5.29 40.69 C-10.49 40.65 -10.49 40.65 -12.89 42.3 C-15.64 46.5 -17.25 51.06 -18 56 C-16.68 56.33 -15.36 56.66 -14 57 C-14.33 57.99 -14.66 58.98 -15 60 C-18.96 60 -22.92 60 -27 60 C-27 58.68 -27 57.36 -27 56 C-26.43 55.45 -25.85 54.9 -25.26 54.33 C-21.99 50.96 -20.62 47.07 -18.85 42.77 C-18.47 41.87 -18.08 40.97 -17.69 40.04 C-16.47 37.15 -15.27 34.26 -14.06 31.38 C-12.86 28.51 -11.65 25.64 -10.45 22.78 C-9.7 21 -8.95 19.22 -8.21 17.43 C-5.72 11.49 -2.95 5.73 0 0 Z M-2 15 C-3.16 17.37 -4.3 19.75 -5.44 22.12 C-5.76 22.79 -6.09 23.46 -6.42 24.14 C-8.31 28.1 -9.51 31.59 -10 36 C-7.54 36.19 -5.08 36.38 -2.62 36.56 C-1.93 36.62 -1.23 36.67 -0.51 36.73 C4.77 37.11 4.77 37.11 7 36 C6.46 30.67 5.15 26.42 2.94 21.56 C2.66 20.93 2.37 20.29 2.08 19.63 C1.4 18.09 0.7 16.54 0 15 C-0.66 15 -1.32 15 -2 15 Z "/>
<path fill="#55565a" transform="translate(633,521)" d="M0 0 C5.94 0 11.88 0 18 0 C16.68 1.65 15.36 3.3 14 5 C13.45 7.5 13.45 7.5 13.39 10.08 C13.38 10.5 13.38 10.5 13.3 12.63 C13.28 13.68 13.27 14.73 13.25 15.81 C13.17 19.17 13.09 22.54 13 26 C21.58 26 30.16 26 39 26 C39.06 22.6 39.12 19.19 39.19 15.69 C39.21 14.62 39.24 13.55 39.27 12.45 C39.27 12.03 39.27 12.03 39.29 9.89 C39.3 9.45 39.3 9.45 39.34 7.27 C38.93 4.52 38.03 3.8 36 2 C36 1.34 36 0.68 36 0 C41.61 0 47.22 0 53 0 C50 5 50 5 49 6 C48.89 7.42 48.84 8.85 48.82 10.27 C48.81 11.18 48.8 12.09 48.78 13.02 C48.78 14.01 48.77 15 48.76 16.02 C48.75 17.03 48.75 18.04 48.74 19.08 C48.72 21.22 48.71 23.37 48.7 25.51 C48.69 28.79 48.64 32.07 48.6 35.35 C48.59 37.42 48.58 39.5 48.57 41.58 C48.56 42.56 48.54 43.55 48.52 44.56 C48.54 51.43 48.54 51.43 51.03 54.53 C51.68 55.01 52.33 55.5 53 56 C53 56.66 53 57.32 53 58 C47.11 59.18 40.81 59.94 35 58 C35 57.34 35 56.68 35 56 C35.66 55.84 35.66 55.84 39 55 C39 47.41 39 39.82 39 32 C30.75 32 22.5 32 14 32 C13.92 35.4 13.84 38.81 13.75 42.31 C13.71 43.38 13.68 44.45 13.64 45.55 C13.63 46.4 13.62 47.24 13.61 48.11 C13.59 48.98 13.57 49.84 13.55 50.73 C14.15 53.75 15.51 54.34 18 56 C18 56.66 18 57.32 18 58 C12.07 59.22 5.81 59.94 0 58 C0 57.34 0 56.68 0 56 C0.65 55.56 1.3 55.12 1.97 54.66 C4 53 4 53 4.51 50.9 C4.51 50.09 4.51 49.27 4.52 48.44 C4.53 47.52 4.54 46.6 4.56 45.65 C4.55 44.65 4.54 43.66 4.53 42.64 C4.54 41.61 4.54 40.59 4.54 39.53 C4.55 37.36 4.54 35.19 4.52 33.02 C4.5 29.71 4.52 26.4 4.55 23.09 C4.54 20.98 4.54 18.87 4.53 16.76 C4.54 16.27 4.54 16.27 4.56 13.77 C4.54 12.84 4.53 11.91 4.52 10.95 C4.51 10.14 4.51 9.32 4.51 8.49 C4 6 4 6 0 0 Z "/>
<path fill="#55565a" transform="translate(761,521)" d="M0 0 C5.28 0 10.56 0 16 0 C14 4 14 4 13 5 C12.89 7.73 12.84 10.43 12.83 13.16 C12.83 13.99 12.83 14.81 12.82 15.67 C12.82 17.42 12.81 19.17 12.81 20.93 C12.81 23.59 12.79 26.26 12.78 28.93 C12.77 30.63 12.77 32.33 12.77 34.04 C12.76 34.83 12.76 35.62 12.75 36.44 C12.77 42.23 13.37 47.31 16.44 52.38 C21.28 55.45 27.06 55.58 32.61 54.49 C36.45 53.3 39.53 52.29 42 49 C43.84 43.69 44.31 38.99 44.3 33.4 C44.3 33 44.3 33 44.31 30.98 C44.32 29.3 44.32 27.62 44.32 25.94 C44.31 23.38 44.34 20.81 44.36 18.25 C44.36 16.61 44.36 14.97 44.36 13.34 C44.37 12.57 44.38 11.81 44.39 11.03 C44.35 6.03 43.73 4.55 41 0 C44.96 0 48.92 0 53 0 C52.67 1.32 52.34 2.64 52 4 C51.34 4.33 50.68 4.66 50 5 C49.99 6.17 49.98 7.34 49.97 8.54 C49.93 12.91 49.87 17.28 49.79 21.65 C49.76 23.54 49.74 25.42 49.73 27.31 C49.71 30.03 49.66 32.75 49.61 35.47 C49.61 36.3 49.61 37.14 49.61 37.99 C49.45 44.35 47.95 49.72 43.62 54.53 C37.52 60.01 31.04 60.39 23.2 60.25 C17.5 59.8 13.63 58.37 9.19 54.62 C4.35 48.82 3.57 45.03 3.59 37.65 C3.58 36.75 3.57 35.86 3.56 34.93 C3.52 31.11 3.5 27.29 3.49 23.47 C3.47 20.67 3.44 17.88 3.41 15.09 C3.41 14.22 3.41 13.35 3.42 12.46 C3.41 11.66 3.4 10.85 3.38 10.02 C3.38 9.32 3.38 8.61 3.38 7.88 C2.89 5.47 1.73 4.69 0 3 C0 2.01 0 1.02 0 0 Z "/>
<path fill="#55565a" transform="translate(873,521)" d="M0 0 C6.37 -0.03 12.74 -0.04 19.12 -0.05 C21.29 -0.06 23.45 -0.07 25.62 -0.08 C28.74 -0.09 31.85 -0.09 34.96 -0.1 C35.93 -0.1 36.91 -0.11 37.91 -0.11 C38.81 -0.11 39.71 -0.11 40.64 -0.11 C41.44 -0.12 42.23 -0.12 43.05 -0.12 C45 0 45 0 47 1 C47.41 3.29 47.41 3.29 47.62 6.06 C47.7 6.98 47.77 7.9 47.85 8.85 C47.9 9.56 47.95 10.27 48 11 C47.01 11.33 46.02 11.66 45 12 C42 7.25 42 7.25 42 5 C37.05 4.67 32.1 4.34 27 4 C27.07 11.08 27.16 18.17 27.26 25.25 C27.3 27.66 27.32 30.08 27.35 32.49 C27.38 35.95 27.43 39.41 27.49 42.87 C27.49 43.95 27.5 45.03 27.51 46.15 C27.53 47.15 27.55 48.15 27.57 49.18 C27.58 50.07 27.59 50.95 27.6 51.86 C27.67 52.21 27.67 52.21 28 54 C28.99 54.66 29.98 55.32 31 56 C30.67 56.99 30.34 57.98 30 59 C27.71 59.03 25.42 59.05 23.12 59.06 C21.85 59.07 20.57 59.09 19.26 59.1 C16 59 16 59 14 58 C14.33 57.01 14.66 56.02 15 55 C15.33 54.84 15.33 54.84 17 54 C17.33 37.5 17.66 21 18 4 C15.86 4.16 15.86 4.16 5 5 C1 10 1 10 0 12 C-0.66 12 -1.32 12 -2 12 C-2.26 4.27 -2.26 4.27 0 0 Z "/>
<path fill="#55565a" transform="translate(986,521)" d="M0 0 C2.06 -0.14 4.12 -0.23 6.19 -0.31 C7.34 -0.37 8.48 -0.43 9.67 -0.49 C14.05 0.15 15.18 1.65 18 5 C18.92 6.03 19.84 7.06 20.76 8.09 C21.74 9.23 22.72 10.36 23.69 11.5 C24.21 12.11 24.73 12.72 25.26 13.34 C30.4 19.39 35.22 25.67 40 32 C41.35 33.77 42.7 35.55 44.06 37.31 C44.61 38.03 45.16 38.75 45.72 39.49 C46.14 39.99 46.57 40.49 47 41 C47.33 41 47.66 41 48 41 C48.07 35.96 48.13 30.93 48.16 25.89 C48.18 24.18 48.2 22.47 48.23 20.76 C48.26 18.29 48.28 15.83 48.29 13.36 C48.31 12.6 48.32 11.84 48.34 11.06 C48.34 6.03 47.75 4.58 45 0 C48.96 0 52.92 0 57 0 C56.01 1.65 55.02 3.3 54 5 C53.6 7.61 53.6 7.61 53.57 10.43 C53.55 11.49 53.53 12.55 53.51 13.65 C53.5 14.78 53.49 15.91 53.49 17.08 C53.47 18.25 53.45 19.42 53.43 20.63 C53.38 24.35 53.35 28.08 53.31 31.81 C53.28 34.34 53.24 36.87 53.21 39.4 C53.12 45.6 53.06 51.8 53 58 C52.67 58.16 52.67 58.16 51 59 C46.97 55.22 43.59 51.08 40.17 46.74 C37.98 43.97 35.74 41.23 33.5 38.5 C21.74 24.15 21.74 24.15 18.19 18.94 C16 16 16 16 13 15 C13.04 20.48 13.11 25.96 13.21 31.44 C13.24 33.31 13.26 35.17 13.27 37.04 C13.29 39.72 13.34 42.4 13.39 45.08 C13.39 45.91 13.39 46.74 13.39 47.6 C13.54 53.42 13.54 53.42 16.04 56.56 C16.69 57.03 17.33 57.51 18 58 C12.98 59.13 9.02 58.78 4 58 C4.65 57.39 5.29 56.78 5.96 56.15 C8.85 51.68 8.65 47.88 8.67 42.66 C8.69 41.66 8.7 40.66 8.71 39.63 C8.73 37.52 8.74 35.41 8.74 33.3 C8.75 30.08 8.82 26.86 8.9 23.63 C8.91 21.58 8.92 19.53 8.92 17.47 C8.95 16.51 8.98 15.55 9.01 14.56 C8.92 7.97 8.92 7.97 6.16 5.05 C4.16 3.57 2.12 2.29 0 1 C0 0.67 0 0.34 0 0 Z "/>
<path fill="#55565a" transform="translate(1076,521)" d="M0 0 C4.5 -0.09 9 -0.14 13.5 -0.19 C14.13 -0.2 14.13 -0.2 17.34 -0.26 C25.82 -0.33 32.37 -0.25 38.94 5.62 C41.5 9.81 42.3 13.12 42 18 C40.4 22.72 38.18 25.31 34 28 C31.19 28.75 31.19 28.75 29 29 C31.01 34.2 33.41 38.27 36.88 42.62 C37.09 42.9 37.09 42.9 38.15 44.28 C45.79 54.05 45.79 54.05 52 56 C52 56.66 52 57.32 52 58 C46.97 58.92 42.93 59.5 38 58 C34.97 55.06 32.61 51.7 30.19 48.25 C29.85 47.8 29.85 47.8 28.17 45.5 C25.22 41.43 22.72 37.75 21 33 C19.85 32.84 19.85 32.84 14 32 C13.88 35.58 13.81 39.17 13.75 42.75 C13.72 43.77 13.68 44.78 13.65 45.83 C13.55 53.4 13.55 53.4 16.02 56.7 C16.67 57.13 17.33 57.56 18 58 C12.75 59.11 7.35 59.54 2 59 C1.01 58.34 0.02 57.68 -1 57 C-0.35 56.61 0.3 56.21 0.97 55.81 C3 54 3 54 3.5 51.76 C3.5 50.89 3.5 50.02 3.5 49.12 C3.51 48.13 3.52 47.13 3.53 46.11 C3.52 45.58 3.52 45.58 3.5 42.88 C3.5 41.78 3.5 40.68 3.5 39.55 C3.5 37.22 3.49 34.9 3.47 32.58 C3.44 29.01 3.45 25.45 3.46 21.89 C3.45 19.64 3.44 17.38 3.43 15.12 C3.44 14.59 3.44 14.59 3.44 11.89 C3.43 10.9 3.42 9.9 3.4 8.88 C3.4 8.01 3.39 7.14 3.39 6.24 C2.92 3.55 2.03 2.73 0 1 C0 0.67 0 0.34 0 0 Z M13 5 C12.91 6.71 12.89 8.42 12.9 10.13 C12.91 11.16 12.91 12.2 12.91 13.26 C12.92 14.35 12.93 15.44 12.94 16.56 C12.94 17.65 12.95 18.75 12.95 19.87 C12.96 22.58 12.98 25.29 13 28 C19.76 28.29 24.18 28.44 29.5 23.91 C32.15 20.53 32.34 17.18 32 13 C31.27 9.72 30.21 8.26 28.06 5.69 C24.55 3.75 16.28 1.72 13 5 Z "/>
<path fill="#55565a" transform="translate(1136,521)" d="M0 0 C5.52 -0.07 11.03 -0.13 16.55 -0.16 C18.43 -0.18 20.31 -0.2 22.19 -0.23 C24.88 -0.26 27.58 -0.28 30.27 -0.29 C30.69 -0.3 30.69 -0.3 32.83 -0.34 C35.19 -0.34 35.19 -0.34 39 0 C41.68 4.02 41.16 6.24 41 11 C40.01 10.67 39.02 10.34 38 10 C37.84 9.58 37.84 9.58 37.01 7.46 C35 5 35 5 32.7 4.59 C29.73 4.51 26.79 4.57 23.81 4.69 C22.78 4.71 21.74 4.73 20.67 4.76 C18.11 4.81 15.56 4.9 13 5 C12.97 8.15 12.95 11.29 12.94 14.44 C12.93 15.34 12.92 16.23 12.91 17.16 C12.91 18.01 12.91 18.87 12.9 19.75 C12.9 20.54 12.89 21.33 12.89 22.14 C13 24 13 24 14 25 C16.27 25.13 18.54 25.18 20.81 25.19 C21.43 25.19 21.43 25.19 24.58 25.23 C27.77 25.02 29.42 24.81 32 23 C32.66 22.01 33.32 21.02 34 20 C34.66 20 35.32 20 36 20 C36 25.28 36 30.56 36 36 C33 35 33 35 31.86 32.95 C29.64 30.63 29.09 30.7 25.99 30.61 C24.43 30.64 22.87 30.68 21.31 30.75 C20.91 30.76 20.91 30.76 18.9 30.8 C16.93 30.85 14.97 30.92 13 31 C12.97 34.65 12.95 38.29 12.94 41.94 C12.93 42.98 12.92 44.02 12.91 45.09 C12.91 46.08 12.91 47.07 12.9 48.09 C12.9 49.01 12.89 49.92 12.89 50.87 C13 53 13 53 14 54 C17.24 54.25 20.5 54.19 23.75 54.19 C24.2 54.19 24.2 54.19 26.5 54.22 C35.22 54.24 35.22 54.24 39 52 C39.7 50.35 40.37 48.68 41 47 C43.12 45.69 43.12 45.69 45 45 C44.34 49.35 42.93 53.06 41 57 C37.18 59.54 34.1 59.27 29.68 59.23 C28.87 59.23 28.06 59.23 27.22 59.23 C25.51 59.23 23.79 59.22 22.08 59.21 C19.44 59.19 16.81 59.19 14.18 59.19 C12.52 59.18 10.85 59.17 9.18 59.17 C8.79 59.17 8.79 59.17 6.79 59.16 C1.23 59.12 1.23 59.12 -1 58 C-1 57.34 -1 56.68 -1 56 C-0.35 55.56 0.3 55.12 0.97 54.67 C3 53 3 53 3.5 50.84 C3.5 50 3.5 49.16 3.5 48.3 C3.51 47.35 3.52 46.4 3.53 45.42 C3.52 44.39 3.51 43.37 3.5 42.31 C3.5 41.26 3.5 40.2 3.5 39.12 C3.5 36.89 3.49 34.66 3.47 32.43 C3.44 29.01 3.45 25.6 3.46 22.18 C3.45 20.02 3.44 17.85 3.43 15.69 C3.44 14.66 3.44 13.64 3.44 12.58 C3.43 11.63 3.42 10.68 3.4 9.7 C3.4 8.86 3.39 8.03 3.39 7.16 C2.92 4.53 1.95 3.76 0 2 C0 1.34 0 0.68 0 0 Z "/>
<path fill="#55565a" transform="translate(1186,521)" d="M0 0 C1.89 -0.14 3.79 -0.23 5.69 -0.31 C6.74 -0.37 7.8 -0.43 8.89 -0.49 C13.13 0.18 14.24 1.74 17 5 C17.51 5.6 18.03 6.21 18.56 6.83 C20.31 8.91 22.03 11.01 23.75 13.12 C24.37 13.88 24.98 14.63 25.61 15.41 C26.85 16.91 28.07 18.42 29.3 19.92 C30.77 21.72 32.25 23.52 33.74 25.31 C36.94 29.19 40.09 33.04 42.94 37.19 C43.28 37.65 43.28 37.65 45 40 C45.66 40 46.32 40 47 40 C46.91 34.95 46.8 29.89 46.68 24.84 C46.64 23.12 46.61 21.4 46.58 19.68 C46.53 17.21 46.47 14.74 46.41 12.27 C46.4 11.5 46.39 10.73 46.38 9.94 C46.27 5.87 45.87 3.74 44 0 C47.96 0 51.92 0 56 0 C55.01 1.65 54.02 3.3 53 5 C52.6 7.61 52.6 7.61 52.57 10.43 C52.55 11.49 52.53 12.55 52.51 13.65 C52.5 14.78 52.49 15.91 52.49 17.08 C52.47 18.25 52.45 19.42 52.43 20.63 C52.38 24.35 52.35 28.08 52.31 31.81 C52.28 34.34 52.24 36.87 52.21 39.4 C52.12 45.6 52.06 51.8 52 58 C51.67 58.16 51.67 58.16 50 59 C46.69 55.77 43.65 52.47 40.75 48.88 C40.36 48.39 40.36 48.39 38.39 45.96 C37.6 44.99 36.81 44.01 36 43 C34.48 41.14 32.96 39.29 31.44 37.44 C28.52 33.87 25.62 30.29 22.75 26.69 C14.34 16.17 14.34 16.17 12 15 C12.07 20.52 12.16 26.04 12.26 31.55 C12.3 33.43 12.32 35.31 12.35 37.19 C12.38 39.88 12.43 42.58 12.49 45.27 C12.49 46.12 12.5 46.96 12.51 47.83 C12.57 50.19 12.57 50.19 13 54 C13.99 54.66 14.98 55.32 16 56 C16 56.66 16 57.32 16 58 C12.27 58.88 8.83 59.26 5 59 C4.34 58.34 3.68 57.68 3 57 C3.65 56.55 4.29 56.1 4.96 55.64 C8.08 51.6 7.63 47.7 7.64 42.72 C7.64 42.22 7.64 42.22 7.67 39.68 C7.69 37.56 7.69 35.44 7.69 33.32 C7.69 30.08 7.75 26.84 7.81 23.6 C7.82 21.53 7.82 19.47 7.82 17.41 C7.85 16.44 7.87 15.47 7.9 14.48 C7.81 7.84 7.81 7.84 5.39 5.32 C3.65 4.12 1.83 3.05 0 2 C0 1.34 0 0.68 0 0 Z "/>
<path fill="#55565a" transform="translate(1317,521)" d="M0 0 C5.94 0 11.88 0 18 0 C16.35 1.98 14.7 3.96 13 6 C12.38 8.41 12.38 8.41 12.38 10.76 C12.38 11.66 12.37 12.55 12.36 13.46 C12.37 14.41 12.39 15.35 12.41 16.32 C12.41 17.31 12.41 18.29 12.41 19.3 C12.41 21.37 12.43 23.44 12.46 25.51 C12.5 28.69 12.5 31.86 12.49 35.03 C12.5 37.05 12.52 39.06 12.53 41.07 C12.53 42.02 12.53 42.97 12.53 43.95 C12.55 44.83 12.56 45.72 12.58 46.62 C12.59 47.4 12.6 48.17 12.61 48.97 C13.11 51.55 13.91 52.44 16 54 C19.33 54.36 19.33 54.36 23.25 54.31 C24.53 54.31 25.82 54.3 27.14 54.3 C36.44 53.58 36.44 53.58 39.71 50.27 C40.07 49.65 40.44 49.02 40.81 48.38 C41.96 46.46 41.96 46.46 43 45 C43.66 45 44.32 45 45 45 C44.51 49.94 43.63 53.75 41 58 C37.35 59.22 33.99 59.14 30.19 59.13 C29.81 59.13 29.81 59.13 27.88 59.14 C26.27 59.14 24.65 59.13 23.04 59.13 C20.58 59.13 18.11 59.13 15.65 59.14 C14.08 59.14 12.51 59.13 10.94 59.13 C10.21 59.13 9.47 59.14 8.71 59.14 C5.34 59.12 2.23 59.06 -1 58 C-1 57.34 -1 56.68 -1 56 C-0.51 55.84 -0.51 55.84 2 55 C3.19 52.61 3.14 51.11 3.16 48.45 C3.17 47.97 3.17 47.97 3.19 45.58 C3.19 45.07 3.19 45.07 3.2 42.48 C3.21 41.43 3.21 40.38 3.22 39.3 C3.23 37.07 3.24 34.84 3.24 32.62 C3.25 29.21 3.28 25.81 3.31 22.4 C3.32 20.24 3.32 18.08 3.33 15.92 C3.34 14.9 3.35 13.88 3.37 12.83 C3.36 11.88 3.36 10.93 3.36 9.94 C3.36 9.11 3.36 8.27 3.37 7.41 C3 5 3 5 0 0 Z "/>
<path fill="#55565a" transform="translate(1454,521)" d="M0 0 C4.37 -0.06 8.75 -0.09 13.12 -0.12 C14.36 -0.14 15.6 -0.16 16.88 -0.18 C18.07 -0.18 19.27 -0.19 20.51 -0.2 C21.61 -0.21 22.71 -0.22 23.84 -0.23 C29.73 0.2 34.24 2.17 38.57 6.09 C41.27 9.7 41.38 13.62 41 18 C39.51 22.25 37.47 25.14 34 28 C31.25 29.25 31.25 29.25 29 30 C29.89 34.34 32.18 37.41 34.75 40.94 C35.18 41.55 35.61 42.15 36.05 42.78 C40.26 48.61 44.3 53.04 51 56 C50.67 56.99 50.34 57.98 50 59 C45.46 59.87 41.19 60.13 37 58 C31.91 53.16 28.2 47.05 24.43 41.17 C23 39 23 39 20.6 36.02 C19 34 19 34 19 32 C16.69 32 14.38 32 12 32 C12.33 39.59 12.66 47.18 13 55 C14.32 55.33 15.64 55.66 17 56 C17 56.66 17 57.32 17 58 C11.65 59.13 4.07 60.53 -1 58 C-1 57.34 -1 56.68 -1 56 C-0.35 55.56 0.3 55.13 0.97 54.68 C3 53 3 53 3.48 50.78 C3.48 50.35 3.48 50.35 3.45 48.16 C3.45 47.18 3.45 46.2 3.45 45.19 C3.43 44.13 3.41 43.08 3.39 41.99 C3.38 40.9 3.38 39.82 3.37 38.71 C3.35 35.24 3.3 31.78 3.25 28.31 C3.23 25.97 3.21 23.62 3.2 21.27 C3.15 15.51 3.08 9.76 3 4 C2.34 4 1.68 4 1 4 C0.67 2.68 0.34 1.36 0 0 Z M12 5 C11.9 6.62 11.87 8.25 11.87 9.88 C11.87 10.86 11.86 11.84 11.86 12.86 C11.87 13.9 11.87 14.93 11.88 16 C11.87 17.04 11.87 18.07 11.86 19.14 C11.86 20.13 11.87 21.11 11.87 22.12 C11.87 23.04 11.87 23.95 11.87 24.88 C12 27 12 27 13 28 C17.09 28.71 20.64 28.74 24.34 26.73 C30.67 22.02 30.67 22.02 31.31 18.08 C31.56 13.74 31.28 10.57 28.75 6.94 C26.48 4.57 25.25 4.04 21.96 3.54 C13.56 3.44 13.56 3.44 12 5 Z "/>
<path fill="#55565a" transform="translate(1575,521)" d="M0 0 C5.61 0 11.22 0 17 0 C16.01 1.65 15.02 3.3 14 5 C13.63 7.03 13.63 7.03 13.63 9.02 C13.62 9.78 13.62 10.53 13.61 11.31 C13.62 12.11 13.63 12.91 13.64 13.74 C13.64 14.58 13.64 15.42 13.64 16.28 C13.64 18.06 13.65 19.83 13.66 21.6 C13.69 24.29 13.68 26.98 13.68 29.68 C13.68 31.41 13.69 33.13 13.7 34.86 C13.7 35.66 13.7 36.46 13.7 37.28 C13.76 42.48 14.45 47.01 16 52 C19.99 55.31 25.72 55.2 30.69 54.94 C35.52 54.32 38.34 53.19 42 50 C47.22 42.18 45.21 28.59 45.25 19.44 C45.27 18.19 45.29 16.95 45.31 15.67 C45.32 14.48 45.32 13.29 45.33 12.06 C45.34 10.99 45.35 9.92 45.36 8.82 C44.95 5.64 44.03 4.4 42 2 C42 1.34 42 0.68 42 0 C46.29 0 50.58 0 55 0 C54.35 0.82 53.7 1.63 53.03 2.48 C50.51 6.27 50.45 9.95 50.5 14.4 C50.49 15.19 50.48 15.99 50.47 16.8 C50.44 19.33 50.44 21.85 50.44 24.38 C50.43 26.89 50.42 29.41 50.4 31.92 C50.38 33.49 50.38 35.05 50.39 36.61 C50.33 43.06 48.69 48.14 45.38 53.75 C40.11 58.74 34.63 60.25 27.44 60.44 C20.45 60.19 15.48 59.21 10.12 54.44 C9.42 53.63 8.72 52.83 8 52 C7.34 51.34 6.68 50.68 6 50 C3.21 39.94 3.63 29.17 3.54 18.82 C3.52 16.64 3.48 14.46 3.44 12.29 C3.43 11.01 3.41 9.73 3.4 8.41 C3 5 3 5 0 0 Z "/>
<path fill="#55565a" transform="translate(1640,521)" d="M0 0 C4.19 -0.09 8.37 -0.14 12.56 -0.19 C13.74 -0.21 14.93 -0.24 16.14 -0.26 C24.23 -0.33 29.59 -0.03 35.81 5.5 C40 10.29 40.43 13.09 40.32 19.27 C39.76 24.03 37.45 26.69 34 29.81 C29.74 32.34 25.62 32.11 20.75 32.06 C19.49 32.05 18.22 32.04 16.92 32.04 C15.96 32.02 14.99 32.01 14 32 C13.91 35.62 13.86 39.25 13.81 42.88 C13.79 43.91 13.76 44.94 13.74 46 C13.73 46.99 13.72 47.98 13.71 48.99 C13.69 49.9 13.68 50.81 13.66 51.75 C13.72 52.12 13.72 52.12 14 54 C14.99 54.66 15.98 55.32 17 56 C17 56.66 17 57.32 17 58 C13.39 58.82 10.01 59.16 6.31 59.19 C5.36 59.2 4.41 59.22 3.43 59.23 C1 59 1 59 -1 57 C-0.68 56.8 -0.68 56.8 0.97 55.8 C3 54 3 54 3.5 51.8 C3.5 51.37 3.5 51.37 3.5 49.21 C3.51 48.24 3.52 47.27 3.53 46.27 C3.52 45.22 3.51 44.17 3.5 43.09 C3.5 42.02 3.5 40.94 3.5 39.83 C3.5 37.56 3.49 35.28 3.47 33 C3.44 29.51 3.45 26.03 3.46 22.54 C3.45 20.33 3.44 18.12 3.43 15.91 C3.44 14.86 3.44 13.81 3.44 12.73 C3.43 11.76 3.42 10.79 3.4 9.79 C3.4 8.94 3.39 8.08 3.39 7.2 C2.92 4.53 1.97 3.77 0 2 C0 1.34 0 0.68 0 0 Z M14 4 C12.36 6.89 11.75 8.94 11.77 12.26 C11.77 13.05 11.77 13.84 11.78 14.65 C11.79 15.47 11.8 16.28 11.81 17.12 C11.81 17.95 11.81 18.77 11.81 19.62 C11.86 25.72 11.86 25.72 13 28 C17.17 29.15 20.86 29.47 24.88 27.81 C28.27 24.92 29.72 23.07 30.88 18.69 C31.06 13.18 29.47 9.69 25.88 5.56 C21.88 3.39 18.45 3.65 14 4 Z "/>
<path fill="#b32025" transform="translate(332.936279296875,76.814697265625)" d="M0 0 C2.73 -0 5.46 -0.02 8.19 -0.04 C55.29 -0.19 99.82 14.23 140.06 38.19 C140.97 38.73 141.88 39.27 142.82 39.82 C155.13 47.4 166.49 56.34 177.06 66.19 C178.33 67.27 179.6 68.36 180.88 69.44 C190.51 77.86 199.21 87.09 207.06 97.19 C207.85 98.17 208.64 99.15 209.45 100.16 C215.83 108.19 221.45 116.64 226.9 125.33 C227.86 126.86 228.83 128.38 229.81 129.89 C234.25 136.96 237.62 144.55 241.09 152.13 C242.05 154.15 243.06 156.13 244.09 158.12 C246.29 162.49 247.92 167 249.5 171.62 C249.8 172.5 250.1 173.37 250.41 174.27 C255.46 189.09 259.24 203.79 262.06 219.19 C262.17 219.75 262.17 219.75 262.72 222.59 C265.17 236.02 265.27 249.7 265.25 263.31 C265.25 263.69 265.25 263.69 265.25 265.62 C265.23 277.9 264.79 290.01 263.06 302.19 C262.97 302.89 262.87 303.6 262.77 304.32 C260.2 322.42 255.22 340.26 248.76 357.34 C248.1 359.08 247.48 360.84 246.86 362.59 C243.94 370.63 240.16 378 236.02 385.46 C235.16 387.01 234.33 388.56 233.5 390.12 C224.41 407.16 213.4 422.39 201.06 437.19 C200.36 438.11 199.66 439.04 198.93 439.99 C198.32 440.71 197.7 441.44 197.06 442.19 C196.4 442.19 195.74 442.19 195.06 442.19 C194.85 442.73 194.63 443.27 194.41 443.83 C192.6 447 190.15 449.39 187.56 451.94 C187.06 452.44 186.57 452.95 186.05 453.47 C182.32 457.19 182.32 457.19 180.06 457.19 C180.06 457.85 180.06 458.51 180.06 459.19 C178.15 460.96 178.15 460.96 175.44 463.12 C174.43 463.93 173.42 464.73 172.38 465.56 C172.11 465.77 172.11 465.77 170.74 466.86 C169.07 468.18 167.4 469.53 165.74 470.87 C136.69 494.27 103.09 510.6 67.06 520.19 C65.92 520.49 64.78 520.79 63.61 521.11 C60.44 521.89 57.27 522.56 54.06 523.19 C53.73 523.25 53.73 523.25 52.06 523.6 C38.59 526.29 24.79 527.28 11.06 526.19 C9.16 524.28 9.94 521.48 9.93 518.94 C9.93 518.04 9.93 517.13 9.93 516.2 C9.93 515.25 9.93 514.29 9.92 513.31 C9.92 510.08 9.92 506.86 9.92 503.63 C9.92 501.33 9.91 499.02 9.91 496.72 C9.9 490.44 9.9 484.17 9.9 477.89 C9.9 472.65 9.89 467.41 9.89 462.17 C9.88 450.5 9.88 438.84 9.88 427.17 C9.88 426.82 9.88 426.82 9.88 425.05 C9.88 424.35 9.88 423.65 9.88 422.92 C9.88 411.58 9.87 400.24 9.86 388.91 C9.84 377.25 9.83 365.6 9.83 353.95 C9.84 347.42 9.83 340.88 9.82 334.34 C9.81 328.18 9.81 322.02 9.82 315.86 C9.82 313.61 9.82 311.35 9.81 309.1 C9.76 287.91 10.01 269.55 25.68 253.37 C34.8 245.01 44.15 241.05 56.06 238.25 C65.74 235.95 74.77 232.16 82.06 225.19 C82.39 224.2 82.72 223.21 83.06 222.19 C82.68 222.52 82.68 222.52 80.75 224.19 C78.06 226.19 78.06 226.19 75.06 226.19 C75.06 226.85 75.06 227.51 75.06 228.19 C72.99 229.36 70.9 230.53 68.81 231.69 C68.23 232.02 67.64 232.35 67.04 232.7 C63.68 234.55 62 235.19 58.06 235.19 C59.75 225.96 63.26 219.35 69.45 212.31 C71.06 210.19 71.06 210.19 71.06 207.19 C69.16 205.9 69.16 205.9 66.56 204.56 C55.19 198.01 48.45 186.72 45.06 174.19 C44 164.52 44.09 154.75 49.06 146.19 C49.5 145.41 49.94 144.63 50.38 143.83 C56.32 134.14 64.56 128.36 75.06 124.19 C96.3 119.48 117.16 128.36 135.06 139.19 C162 156.38 183.14 184.63 190.56 215.86 C195.83 240.15 195.88 265.4 188.06 289.19 C187.74 290.24 187.41 291.3 187.08 292.39 C176.91 323.41 153.02 349.05 124.5 364.25 C108.91 371.85 90.2 377.97 73.06 372.19 C61.11 367.5 53 359.46 47.03 348.25 C42.99 338.68 43.68 325.78 47.13 316.19 C51.38 306.71 57.35 298.08 66.06 292.19 C68.84 291.47 68.84 291.47 71.06 291.19 C70.84 287.54 69.8 285.7 67.38 283.12 C63.17 278.51 60.32 272.98 58.06 267.19 C58.39 266.53 58.72 265.87 59.06 265.19 C68.24 264.59 75.41 267.08 83.06 272.19 C77.94 266.76 73.17 262.53 65.55 262.02 C55.41 261.94 47.92 263.35 40.06 270.19 C35.14 276.38 33.91 281.67 33.89 289.51 C33.89 290.36 33.88 291.22 33.87 292.11 C33.85 295 33.84 297.88 33.83 300.77 C33.81 302.84 33.8 304.9 33.79 306.97 C33.75 312.59 33.72 318.21 33.69 323.83 C33.68 327.34 33.66 330.84 33.64 334.35 C33.57 346.57 33.51 358.8 33.45 371.02 C33.4 382.44 33.33 393.85 33.26 405.26 C33.2 415.05 33.15 424.84 33.1 434.62 C33.08 440.47 33.05 446.32 33.01 452.17 C32.97 457.67 32.94 463.17 32.93 468.67 C32.92 470.69 32.9 472.72 32.89 474.74 C32.87 477.49 32.86 480.24 32.85 482.99 C32.85 483.8 32.84 484.61 32.83 485.44 C32.84 490.96 32.84 490.96 35.06 493.19 C37.5 492.93 39.74 492.57 42.13 492.06 C42.83 491.92 43.54 491.78 44.27 491.63 C46.54 491.16 48.8 490.68 51.06 490.19 C51.43 490.11 51.43 490.11 53.29 489.71 C62.4 487.72 71.31 485.45 80.06 482.19 C80.77 481.92 81.48 481.66 82.21 481.39 C112.81 469.96 139.62 452.93 163.06 430.19 C163.6 429.67 164.15 429.15 164.7 428.62 C172.99 420.72 180.25 412.39 187.06 403.19 C187.49 402.61 187.92 402.04 188.36 401.45 C209.35 373.28 224.17 339.92 230.06 305.19 C230.2 304.41 230.33 303.63 230.47 302.83 C240.31 244.32 227.59 180.82 193.06 132.19 C185.82 122.19 178.36 112.02 169.32 103.55 C168.06 102.19 168.06 102.19 168.06 100.19 C167.07 99.86 166.08 99.53 165.06 99.19 C165.06 98.53 165.06 97.87 165.06 97.19 C164.07 96.86 163.08 96.53 162.06 96.19 C162.06 95.53 162.06 94.87 162.06 94.19 C161.49 93.93 160.91 93.68 160.32 93.42 C157.79 92.03 156.08 90.44 154 88.44 C149.1 83.94 143.91 79.95 138.56 76 C137.78 75.42 137 74.83 136.19 74.24 C120.94 63.08 103.65 54.05 86.06 47.19 C85.45 46.94 84.85 46.7 84.22 46.45 C27.75 24.3 -35.56 27.82 -90.94 51.19 C-96.4 53.61 -101.69 56.32 -106.94 59.19 C-107.44 59.46 -107.44 59.46 -110.01 60.85 C-132.1 73.28 -153.75 89.57 -169.94 109.19 C-170.75 110.11 -171.57 111.04 -172.41 112 C-179.65 120.26 -185.92 129 -191.94 138.19 C-192.66 139.28 -193.38 140.37 -194.12 141.49 C-199.17 149.4 -203.13 157.65 -207 166.17 C-207.95 168.21 -208.96 170.22 -209.99 172.22 C-233.62 219.17 -233.86 282.13 -218.62 331.5 C-208.83 360.82 -195.37 387.18 -175.58 411.02 C-173.94 413.19 -173.94 413.19 -173.94 415.19 C-173.28 415.19 -172.62 415.19 -171.94 415.19 C-170.74 416.41 -170.74 416.41 -169.25 418.25 C-159.76 429.36 -149.26 439.31 -137.52 448.01 C-136.05 449.1 -134.6 450.21 -133.14 451.32 C-108.38 469.94 -79.88 482.14 -49.94 489.56 C-48.9 489.82 -47.86 490.09 -46.79 490.36 C-45.79 490.6 -44.78 490.84 -43.75 491.08 C-42.87 491.3 -41.99 491.51 -41.08 491.73 C-38.22 492.14 -35.62 492.23 -32.74 492.21 C-32.29 492.21 -32.29 492.21 -30.01 492.2 C-29.33 492.2 -28.64 492.19 -27.94 492.19 C-27.87 465.5 -27.81 438.81 -27.78 412.13 C-27.77 399.73 -27.74 387.34 -27.71 374.95 C-27.68 364.15 -27.66 353.35 -27.65 342.55 C-27.65 336.83 -27.64 331.11 -27.62 325.39 C-27.6 320.01 -27.59 314.62 -27.6 309.24 C-27.6 307.26 -27.59 305.29 -27.58 303.32 C-27.45 279.54 -27.45 279.54 -34.29 270.79 C-39.06 266.15 -45.22 262.46 -51.94 262.19 C-52.75 262.12 -53.56 262.06 -54.39 262 C-61.19 261.69 -67.06 262.59 -72.94 266.19 C-75.04 268.11 -76.97 270.12 -78.94 272.19 C-77.89 271.68 -76.84 271.17 -75.75 270.65 C-61.92 264.19 -61.92 264.19 -53.94 265.19 C-54.88 273.13 -58.46 278.08 -63.51 284.04 C-64.94 286.19 -64.94 286.19 -64.94 290.19 C-62.99 291.83 -62.99 291.83 -60.37 293.44 C-50.51 300 -44.68 308.82 -40.56 319.87 C-38.02 332.76 -39.81 344.76 -46.69 355.94 C-53.4 365.33 -63.11 371.84 -74.55 373.9 C-94.5 376.28 -114.57 368.19 -130.94 357.19 C-131.8 356.6 -132.67 356.02 -133.57 355.42 C-161.89 335.6 -180.42 307 -186.94 273.19 C-187.12 272.27 -187.29 271.36 -187.48 270.42 C-188.78 263.28 -189.29 256.38 -189.25 249.12 C-189.24 248.04 -189.24 246.95 -189.23 245.84 C-188.69 209.65 -173.33 178.47 -148 152.99 C-145.94 151.19 -145.94 151.19 -143.94 151.19 C-143.94 150.53 -143.94 149.87 -143.94 149.19 C-141.84 147.51 -139.76 145.96 -137.56 144.44 C-136.92 143.99 -136.28 143.54 -135.62 143.07 C-117.21 130.29 -96.55 120.63 -73.64 123.47 C-62.59 125.75 -52.36 132.68 -46.05 141.97 C-39.68 153.22 -37.68 165.93 -41.06 178.56 C-45.59 191.22 -53.92 201.17 -65.94 207.19 C-65.34 210.43 -64.28 212.28 -62.19 214.81 C-57.67 220.63 -54.14 226.87 -52.94 234.19 C-55.12 234.87 -55.12 234.87 -57.94 235.19 C-60.27 233.92 -60.27 233.92 -62.94 232.19 C-63.82 231.63 -64.71 231.07 -65.62 230.5 C-70.42 227.44 -75.22 224.37 -79.94 221.19 C-79.94 221.85 -79.94 222.51 -79.94 223.19 C-79.28 223.19 -78.62 223.19 -77.94 223.19 C-77.44 223.89 -76.95 224.59 -76.44 225.31 C-69.84 232.89 -59.73 236.67 -50.12 238.62 C-34.46 241.87 -22.49 249.32 -13.28 262.56 C-7.55 271.54 -5.48 280.14 -5.58 290.73 C-5.57 291.74 -5.57 292.75 -5.57 293.8 C-5.56 297.17 -5.58 300.53 -5.6 303.9 C-5.6 306.33 -5.6 308.75 -5.59 311.18 C-5.59 316.39 -5.6 321.59 -5.62 326.8 C-5.64 334.33 -5.65 341.86 -5.66 349.39 C-5.66 361.61 -5.68 373.82 -5.71 386.04 C-5.74 397.91 -5.76 409.77 -5.77 421.63 C-5.77 422 -5.77 422 -5.77 423.85 C-5.78 427.52 -5.78 431.2 -5.79 434.87 C-5.82 465.31 -5.87 495.75 -5.94 526.19 C-9.7 526.23 -13.45 526.26 -17.21 526.29 C-18.26 526.3 -19.31 526.31 -20.39 526.33 C-44.91 526.45 -70.22 519.05 -92.94 510.19 C-93.69 509.89 -94.44 509.6 -95.22 509.3 C-112.54 502.52 -128.56 493.63 -143.94 483.19 C-144.22 482.99 -144.22 482.99 -145.68 482 C-154.57 475.92 -162.85 469.29 -170.94 462.19 C-171.81 461.42 -172.68 460.66 -173.58 459.88 C-183.59 451.02 -192.62 441.64 -200.94 431.19 C-202.46 429.37 -203.98 427.56 -205.5 425.75 C-210.07 420.15 -214.05 414.27 -217.94 408.19 C-218.33 407.58 -218.72 406.98 -219.13 406.35 C-225.46 396.62 -231.03 386.71 -235.94 376.19 C-236.24 375.53 -236.55 374.88 -236.86 374.2 C-247.09 352.04 -254.44 328.37 -257.94 304.19 C-258.04 303.5 -258.14 302.81 -258.25 302.1 C-267.13 239.22 -253.43 172.08 -217.94 119.19 C-217.6 118.68 -217.6 118.68 -215.89 116.11 C-206.07 101.67 -195.08 88.72 -182.94 76.19 C-182.04 75.26 -181.15 74.34 -180.23 73.38 C-175.98 69.08 -171.67 64.95 -166.94 61.19 C-166.28 61.19 -165.62 61.19 -164.94 61.19 C-164.94 60.53 -164.94 59.87 -164.94 59.19 C-163.41 57.82 -163.41 57.82 -161.27 56.24 C-160.49 55.66 -159.7 55.09 -158.89 54.49 C-158.04 53.87 -157.19 53.26 -156.31 52.62 C-155.44 51.99 -154.58 51.36 -153.69 50.71 C-146.6 45.59 -139.4 40.74 -131.94 36.19 C-131.44 35.87 -131.44 35.87 -128.91 34.28 C-111.63 23.85 -92.33 15.78 -72.94 10.19 C-72.2 9.97 -71.47 9.75 -70.71 9.53 C-61.26 6.77 -51.75 4.65 -42.06 2.94 C-41.6 2.85 -41.6 2.85 -39.29 2.44 C-26.23 0.24 -13.21 -0 0 0 Z "/>
<path fill="#b32025" transform="translate(1621.401611328125,122.569580078125)" d="M0 0 C23.07 8.66 23.07 8.66 30.6 5.43 C33.53 1.2 34.44 -4.37 35.1 -9.38 C35.6 -12.57 35.6 -12.57 37.6 -14.57 C41.1 -14.82 41.1 -14.82 44.6 -14.57 C47.07 -12.1 46.91 -11.23 47.12 -7.82 C47.19 -6.8 47.26 -5.79 47.33 -4.75 C47.39 -3.62 47.46 -2.5 47.53 -1.34 C47.69 1.13 47.86 3.61 48.03 6.08 C48.07 6.74 48.12 7.4 48.16 8.09 C48.67 15.62 49.28 23.14 49.91 30.66 C50.11 33.09 50.31 35.52 50.5 37.95 C51.05 44.61 51.6 51.26 52.14 57.92 C52.49 62.06 52.83 66.2 53.16 70.35 C53.29 71.9 53.42 73.46 53.55 75.02 C53.73 77.18 53.9 79.34 54.08 81.5 C54.18 82.72 54.28 83.94 54.38 85.2 C54.57 87.96 54.64 90.67 54.6 93.43 C49.3 95.6 49.3 95.6 46.57 94.94 C43.59 92.66 42.86 89.57 41.72 86.12 C41.21 84.65 40.69 83.19 40.16 81.73 C39.9 81 39.64 80.27 39.37 79.52 C28.84 51.02 9.93 27.07 -17.95 14.21 C-47.79 0.9 -83.66 0.47 -114.23 11.79 C-133.8 19.39 -150.64 31.84 -162.84 48.99 C-163.4 49.78 -163.96 50.56 -164.54 51.37 C-169.33 58.15 -173.57 65.07 -177.4 72.43 C-177.85 73.28 -178.29 74.13 -178.75 75 C-191.29 100.72 -195.97 129.21 -195.85 157.56 C-195.84 160.66 -195.87 163.77 -195.9 166.88 C-196.05 210.27 -182.13 253.82 -154.4 287.43 C-153.48 288.34 -152.55 289.25 -151.6 290.19 C-149.4 292.43 -149.4 292.43 -149.4 294.43 C-148.74 294.43 -148.08 294.43 -147.4 294.43 C-147.4 295.09 -147.4 295.75 -147.4 296.43 C-146.82 296.69 -146.24 296.96 -145.64 297.23 C-143.3 298.49 -141.61 299.89 -139.65 301.68 C-131.43 308.96 -123.09 313.87 -113.2 318.57 C-111.77 319.26 -110.35 319.97 -108.93 320.69 C-81.52 334.1 -47.22 331.3 -19.09 322.11 C-12.28 319.75 -5.78 316.79 0.6 313.43 C1.47 313.12 2.35 312.81 3.25 312.49 C5.6 310.43 5.6 310.43 6.05 308.38 C6.23 305.53 6.24 302.72 6.2 299.86 C6.2 299.32 6.2 299.32 6.21 296.57 C6.22 292.95 6.19 289.34 6.16 285.73 C6.15 283.21 6.15 280.7 6.15 278.18 C6.14 272.89 6.12 267.61 6.09 262.32 C6.04 256.25 6.03 250.17 6.02 244.1 C6.02 238.23 6 232.36 5.98 226.49 C5.97 224 5.97 221.52 5.96 219.04 C5.86 179.49 5.86 179.49 -1.97 170.66 C-11.23 162.13 -23.29 161.52 -35.32 160.68 C-37.4 160.43 -37.4 160.43 -38.4 159.43 C-38.53 157.62 -38.53 157.62 -38.53 155.43 C-38.53 154.71 -38.53 153.99 -38.53 153.24 C-38.4 151.43 -38.4 151.43 -37.4 150.43 C-35.71 150.33 -34.01 150.3 -32.31 150.3 C-31.21 150.3 -30.11 150.3 -28.97 150.29 C-28.36 150.3 -28.36 150.3 -25.28 150.3 C-24 150.3 -22.73 150.3 -21.41 150.3 C-17.9 150.29 -14.39 150.29 -10.88 150.3 C-7.21 150.3 -3.55 150.3 0.12 150.29 C6.27 150.29 12.43 150.3 18.59 150.3 C25.72 150.31 32.84 150.3 39.97 150.3 C46.08 150.29 52.19 150.29 58.3 150.3 C61.96 150.3 65.61 150.3 69.26 150.29 C73.33 150.29 77.4 150.3 81.48 150.3 C82.7 150.3 83.91 150.3 85.17 150.29 C86.27 150.3 87.38 150.3 88.51 150.3 C88.99 150.3 88.99 150.3 91.43 150.3 C93.6 150.43 93.6 150.43 94.6 151.43 C94.73 153.24 94.73 153.24 94.72 155.43 C94.73 156.15 94.73 156.87 94.73 157.62 C94.6 159.43 94.6 159.43 93.6 160.43 C91.6 160.62 89.6 160.75 87.6 160.87 C77.84 161.61 71.75 162.19 64.48 169.23 C61.72 172.46 60.51 175.32 59.6 179.43 C59.41 180.23 59.22 181.03 59.02 181.85 C55.93 196.68 56.48 212.03 56.55 227.08 C56.57 230.67 56.58 234.25 56.59 237.84 C56.61 248.02 56.65 258.2 56.69 268.38 C56.72 274.64 56.74 280.89 56.75 287.15 C56.76 289.52 56.77 291.9 56.78 294.28 C56.8 297.59 56.81 300.9 56.81 304.21 C56.81 304.7 56.81 304.7 56.84 307.18 C56.83 308.08 56.83 308.98 56.83 309.91 C56.84 310.69 56.84 311.47 56.84 312.28 C56.56 314.74 55.9 316.33 54.6 318.43 C52.55 319.78 52.55 319.78 50 320.98 C49.07 321.43 48.13 321.88 47.16 322.34 C46.15 322.8 45.14 323.27 44.1 323.74 C43.06 324.23 42.02 324.71 40.94 325.21 C19.7 335 -2.15 342.26 -25.4 345.43 C-26.12 345.53 -26.84 345.64 -27.57 345.74 C-82.79 353.35 -143.4 345.28 -188.89 311.23 C-203.64 299.75 -216.16 286.02 -226.4 270.43 C-227.19 269.26 -227.97 268.09 -228.75 266.91 C-253.91 228.95 -261.38 180.86 -252.4 136.43 C-252.26 135.74 -252.12 135.05 -251.98 134.34 C-250.99 129.64 -249.76 125.03 -248.4 120.43 C-248.17 119.64 -247.94 118.85 -247.7 118.04 C-239.06 89.24 -224.83 63.98 -204.55 41.8 C-202.66 39.71 -200.84 37.58 -199.03 35.43 C-177.11 10.46 -143.94 -6.26 -111.4 -11.57 C-111 -11.64 -111 -11.64 -108.96 -11.98 C-70.52 -18.21 -36.16 -13.64 0 0 Z "/>
<path fill="#b32025" transform="translate(637.4894104003906,115.75111103057861)" d="M0 0 C1.06 0 2.11 0 3.2 0 C4.42 -0 5.63 -0.01 6.88 -0.01 C8.23 -0.01 9.57 0 10.92 0.01 C12.34 0 13.76 0 15.17 0 C19.02 -0 22.87 0 26.73 0.01 C30.75 0.02 34.77 0.02 38.8 0.02 C45.56 0.02 52.32 0.03 59.08 0.04 C66.9 0.06 74.72 0.06 82.54 0.06 C90.06 0.06 97.57 0.07 105.08 0.08 C108.29 0.08 111.49 0.08 114.69 0.08 C118.46 0.08 122.23 0.09 126 0.1 C127.39 0.1 128.77 0.1 130.16 0.1 C132.04 0.1 133.93 0.11 135.82 0.12 C136.87 0.12 137.93 0.12 139.02 0.12 C141.51 0.25 141.51 0.25 143.51 1.25 C143.51 3.89 143.51 6.53 143.51 9.25 C141.22 10.39 139.84 10.4 137.29 10.46 C124.05 10.87 113.12 11.44 102.51 20.25 C95.24 28.29 95.06 40.51 95.08 50.81 C95.07 52.02 95.06 53.23 95.05 54.48 C95.02 58.36 95.01 62.23 95 66.11 C94.98 68.52 94.97 70.93 94.95 73.34 C94.89 82.23 94.86 91.11 94.82 100 C94.77 109.94 94.77 109.94 94.51 160.25 C146.98 160.25 199.45 160.25 253.51 160.25 C253.43 139.69 253.35 119.12 253.26 97.94 C253.24 91.46 253.23 84.98 253.21 78.31 C253.17 70.36 253.17 70.36 253.14 66.63 C253.13 64.04 253.12 61.45 253.12 58.87 C253.12 54.93 253.09 51 253.06 47.06 C253.06 46.49 253.06 46.49 253.07 43.61 C252.97 35.81 252.14 27.37 246.77 21.28 C245.09 19.77 243.39 18.5 241.51 17.25 C241.13 16.97 241.13 16.97 239.2 15.56 C228.76 10.46 217.91 10.55 206.51 10.25 C205.39 6.94 205.39 6.94 204.51 3.25 C205.17 2.26 205.83 1.27 206.51 0.25 C209.02 -0.12 209.02 -0.12 212.25 -0.12 C212.86 -0.12 212.86 -0.12 215.95 -0.14 C217.31 -0.13 218.67 -0.12 220.03 -0.11 C221.46 -0.11 222.89 -0.11 224.31 -0.11 C228.2 -0.12 232.08 -0.11 235.96 -0.09 C240.02 -0.07 244.07 -0.07 248.13 -0.07 C254.94 -0.07 261.75 -0.05 268.56 -0.03 C277.31 -0 286.06 0.01 294.82 0.01 C302.33 0.02 309.84 0.03 317.35 0.04 C319.77 0.05 322.19 0.05 324.61 0.05 C328.41 0.06 332.21 0.07 336.01 0.08 C337.4 0.09 338.8 0.09 340.2 0.09 C342.1 0.09 344 0.1 345.9 0.11 C346.43 0.11 346.43 0.11 349.13 0.12 C351.51 0.25 351.51 0.25 352.51 1.25 C352.65 3.92 352.55 6.57 352.51 9.25 C350.23 10.39 348.9 10.39 346.36 10.42 C333.07 10.76 320.57 11.45 310.51 21.25 C308.64 23.87 308.64 23.87 307.51 26.25 C307.17 26.87 306.83 27.5 306.48 28.14 C303.44 34.76 304.37 43.35 304.38 50.47 C304.37 51.57 304.37 52.67 304.37 53.8 C304.36 57.46 304.36 61.13 304.37 64.79 C304.36 67.42 304.36 70.06 304.36 72.69 C304.35 79.09 304.34 85.49 304.34 91.89 C304.34 97.1 304.34 102.31 304.34 107.51 C304.33 122.29 304.32 137.07 304.33 151.84 C304.33 152.64 304.33 153.43 304.33 154.25 C304.33 155.05 304.33 155.85 304.33 156.67 C304.33 169.58 304.32 182.48 304.3 195.39 C304.29 208.67 304.28 221.94 304.28 235.21 C304.28 242.65 304.28 250.1 304.27 257.54 C304.26 263.88 304.26 270.22 304.26 276.56 C304.27 279.79 304.27 283.02 304.26 286.24 C304.25 289.75 304.26 293.26 304.26 296.77 C304.26 297.28 304.26 297.28 304.25 299.83 C304.29 308.57 305.4 317.03 308.51 325.25 C309.17 325.25 309.83 325.25 310.51 325.25 C310.51 325.91 310.51 326.57 310.51 327.25 C311.19 327.5 311.87 327.74 312.57 328 C315.51 329.25 315.51 329.25 318.57 331.19 C326.98 336.01 336.52 336.61 345.99 336.96 C351.42 337.16 351.42 337.16 352.51 338.25 C352.64 341.75 352.64 341.75 352.51 345.25 C351.51 346.25 351.51 346.25 349.11 346.37 C348.57 346.37 348.57 346.37 345.85 346.37 C344.62 346.37 343.39 346.37 342.12 346.37 C340.75 346.37 339.37 346.37 337.99 346.36 C336.56 346.36 335.12 346.36 333.68 346.36 C329.76 346.36 325.84 346.36 321.93 346.35 C317.84 346.34 313.75 346.34 309.66 346.34 C301.91 346.34 294.16 346.33 286.41 346.32 C277.59 346.31 268.77 346.3 259.95 346.3 C241.81 346.29 223.66 346.27 205.51 346.25 C204.39 339.5 204.39 339.5 205.51 337.25 C206.65 337.22 207.78 337.2 208.96 337.17 C222.17 336.74 235.47 335.89 245.51 326.25 C246.27 325.55 247.04 324.85 247.82 324.12 C252.73 315.76 252.96 305.82 252.96 296.37 C252.97 295.14 252.98 293.92 252.99 292.65 C253.02 289.33 253.04 286.01 253.05 282.69 C253.06 279.2 253.09 275.71 253.12 272.22 C253.16 266.37 253.19 260.52 253.22 254.68 C253.25 247.17 253.3 239.66 253.36 232.16 C253.4 225.69 253.44 219.22 253.48 212.76 C253.49 210.68 253.51 208.61 253.52 206.53 C253.55 202.68 253.56 198.82 253.58 194.97 C253.58 194.39 253.58 194.39 253.6 191.48 C253.61 190.96 253.61 190.96 253.61 188.31 C253.62 187.4 253.62 186.49 253.63 185.55 C253.51 183.25 253.51 183.25 252.51 180.25 C200.37 180.25 148.23 180.25 94.51 180.25 C94.55 190.84 94.55 190.84 94.76 244.44 C94.78 251.1 94.79 257.77 94.81 264.64 C94.85 272.84 94.85 272.84 94.88 276.68 C94.89 279.35 94.9 282.01 94.9 284.68 C94.9 288.73 94.93 292.78 94.96 296.84 C94.96 298.01 94.95 299.18 94.95 300.39 C95.07 309.72 96.09 320.26 102.89 327.25 C110.02 332.66 120.65 336.13 129.58 336.53 C130.33 336.57 131.08 336.6 131.86 336.64 C133.43 336.71 135 336.78 136.58 336.85 C142.41 337.15 142.41 337.15 143.51 338.25 C143.64 341.75 143.64 341.75 143.51 345.25 C141.75 347.01 139.24 346.38 136.85 346.38 C135.63 346.38 134.4 346.38 133.13 346.38 C131.76 346.38 130.38 346.38 129.01 346.38 C127.57 346.38 126.14 346.38 124.7 346.38 C120.79 346.39 116.87 346.39 112.96 346.38 C108.87 346.38 104.79 346.38 100.7 346.38 C93.84 346.39 86.98 346.38 80.11 346.38 C72.17 346.37 64.22 346.38 56.27 346.38 C49.46 346.39 42.65 346.39 35.84 346.38 C31.77 346.38 27.7 346.38 23.62 346.39 C19.8 346.39 15.97 346.39 12.14 346.38 C10.73 346.38 9.32 346.38 7.91 346.38 C6 346.38 4.08 346.38 2.17 346.38 C1.09 346.38 0.02 346.38 -1.09 346.37 C-3.49 346.25 -3.49 346.25 -4.49 345.25 C-4.61 341.75 -4.61 341.75 -4.49 338.25 C-2.66 336.42 -0.1 337.04 2.34 336.96 C14.52 336.53 27.12 335.97 36.51 327.25 C38.29 324.95 39.29 322.94 40.51 320.25 C40.85 319.52 41.19 318.8 41.54 318.05 C42.8 314.41 43.24 310.79 43.62 306.98 C43.7 306.15 43.79 305.32 43.87 304.46 C44.88 293.53 44.79 282.59 44.77 271.63 C44.77 269.21 44.78 266.8 44.78 264.38 C44.79 258.55 44.79 252.72 44.78 246.89 C44.78 242.14 44.78 237.39 44.78 232.64 C44.78 231.96 44.78 231.28 44.78 230.58 C44.78 229.2 44.78 227.82 44.78 226.44 C44.79 213.52 44.78 200.61 44.77 187.7 C44.76 176.67 44.76 165.63 44.77 154.6 C44.78 141.73 44.79 128.85 44.78 115.98 C44.78 114.61 44.78 113.23 44.78 111.85 C44.78 111.18 44.78 110.5 44.78 109.8 C44.78 105.07 44.78 100.34 44.78 95.61 C44.79 89.22 44.78 82.83 44.77 76.44 C44.77 74.11 44.77 71.78 44.78 69.45 C44.79 58.85 44.72 48.28 43.81 37.71 C43.75 36.97 43.7 36.22 43.65 35.45 C43.12 30.4 41.48 27.05 38.56 22.9 C37.51 21.25 37.51 21.25 37.51 19.25 C34.24 17.56 30.9 16.11 27.51 14.69 C26.48 14.25 25.45 13.82 24.39 13.37 C20.43 11.83 17.05 11.13 12.82 11 C11.93 10.97 11.05 10.94 10.15 10.9 C8.3 10.84 6.45 10.78 4.6 10.73 C3.72 10.7 2.84 10.66 1.94 10.63 C1.14 10.6 0.34 10.58 -0.49 10.55 C-2.49 10.25 -2.49 10.25 -4.49 8.25 C-4.74 5.25 -4.74 5.25 -4.49 2.25 C-2.49 0.25 -2.49 0.25 0 0 Z "/>
<path fill="#b32025" transform="translate(1013.3571081161499,115.75111103057861)" d="M0 0 C1 0 1.99 0 3.02 0 C4.16 -0 5.3 -0.01 6.48 -0.01 C7.74 -0.01 9 0 10.29 0.01 C11.63 0 12.96 0 14.3 0 C17.94 -0 21.58 0 25.23 0.01 C29.06 0.02 32.89 0.02 36.73 0.02 C43.19 0.02 49.66 0.03 56.13 0.04 C63.53 0.06 70.93 0.06 78.34 0.06 C86.28 0.06 94.22 0.07 102.17 0.08 C104.42 0.08 106.67 0.08 108.92 0.08 C123.44 0.09 137.95 0.17 152.46 0.68 C153.51 0.71 154.57 0.75 155.66 0.79 C189.75 2.14 220.21 9.9 244.62 35.04 C254.62 45.94 259.71 58.2 263.64 72.25 C263.73 72.56 263.73 72.56 264.19 74.11 C267.13 88.01 265.65 105.04 260.64 118.25 C260.28 119.3 259.92 120.34 259.55 121.42 C256.72 128.95 252.68 135.03 247.64 141.25 C246.98 142.09 246.31 142.94 245.62 143.81 C231 161.23 207.55 172.4 185.64 177.25 C184.32 177.25 183 177.25 181.64 177.25 C182.23 180.23 183.08 182.15 184.94 184.54 C185.18 184.85 185.18 184.85 186.39 186.43 C186.9 187.09 187.42 187.75 187.96 188.44 C192.34 194.17 196.62 199.96 200.77 205.87 C201.02 206.23 201.02 206.23 202.28 208.03 C203.27 209.44 204.26 210.85 205.24 212.25 C207.34 215.24 209.46 218.22 211.58 221.19 C211.98 221.74 212.37 222.3 212.78 222.87 C216.22 227.67 219.68 232.46 223.14 237.25 C227.01 242.6 230.87 247.94 234.71 253.31 C235.1 253.87 235.5 254.42 235.91 255 C238.11 258.09 240.3 261.18 242.47 264.3 C251.59 277.35 260.79 290.46 271.67 302.12 C273.53 304.13 275.27 306.2 277.02 308.31 C293.24 326.68 315.47 332.69 338.64 337.25 C339.77 344 339.77 344 338.64 346.25 C326.79 346.48 314.93 346.66 303.07 346.77 C297.56 346.82 292.06 346.89 286.55 347 C281.24 347.11 275.92 347.17 270.6 347.2 C268.58 347.22 266.55 347.25 264.53 347.31 C248.65 347.71 248.65 347.71 243.66 344.07 C241.61 341.54 240.1 339.15 238.64 336.25 C237.87 335.14 237.09 334.04 236.28 332.96 C235.96 332.48 235.96 332.48 234.33 330.06 C231.05 325.24 227.67 320.5 224.21 315.81 C220.63 310.96 217.08 306.09 213.58 301.19 C213.17 300.61 212.76 300.03 212.33 299.44 C210.71 297.15 209.08 294.87 207.46 292.58 C202.3 285.31 197.07 278.1 191.77 270.94 C186.79 264.21 181.91 257.43 177.11 250.59 C168.52 238.37 159.71 226.31 150.82 214.32 C146.31 208.21 141.93 202.03 137.64 195.77 C137.18 195.11 136.73 194.46 136.26 193.79 C136.07 193.51 136.07 193.51 135.09 192.08 C129.84 185.44 129.84 185.44 125.06 184.67 C123.7 184.66 122.33 184.68 120.97 184.73 C120.25 184.73 119.52 184.73 118.78 184.74 C116.48 184.76 114.19 184.82 111.89 184.87 C110.33 184.89 108.78 184.9 107.22 184.92 C95.84 185.05 95.84 185.05 94.64 186.25 C94.54 187.61 94.51 188.99 94.51 190.35 C94.5 191.24 94.5 192.13 94.5 193.04 C94.5 194.02 94.5 195 94.5 196.01 C94.49 197.03 94.49 198.06 94.49 199.12 C94.48 202.54 94.48 205.95 94.47 209.37 C94.47 211.75 94.47 214.13 94.46 216.51 C94.46 221.52 94.46 226.53 94.46 231.53 C94.46 237.91 94.44 244.28 94.43 250.66 C94.42 255.59 94.41 260.51 94.41 265.44 C94.41 267.79 94.41 270.13 94.4 272.48 C94.36 285.56 94.65 298.3 96.64 311.25 C96.79 312.18 96.93 313.1 97.08 314.06 C98.35 320.91 101.32 325.77 106.81 330.08 C115.39 335.53 124.63 336.36 134.52 336.81 C135.4 336.85 136.28 336.9 137.18 336.94 C139.34 337.05 141.49 337.15 143.64 337.25 C143.74 343.4 143.74 343.4 143.64 345.25 C141.88 347.01 139.38 346.38 136.99 346.38 C135.76 346.38 134.53 346.38 133.26 346.38 C131.89 346.38 130.52 346.38 129.14 346.38 C127.71 346.38 126.27 346.38 124.83 346.38 C120.92 346.39 117.01 346.39 113.09 346.38 C109.01 346.38 104.92 346.38 100.83 346.38 C93.97 346.39 87.11 346.38 80.24 346.38 C72.3 346.37 64.35 346.38 56.41 346.38 C49.6 346.39 42.79 346.39 35.98 346.38 C31.9 346.38 27.83 346.38 23.76 346.39 C19.93 346.39 16.1 346.39 12.27 346.38 C10.86 346.38 9.45 346.38 8.05 346.38 C6.13 346.38 4.21 346.38 2.3 346.38 C1.22 346.38 0.15 346.38 -0.96 346.37 C-3.36 346.25 -3.36 346.25 -4.36 345.25 C-4.48 341.75 -4.48 341.75 -4.36 338.25 C-2.52 336.41 0.07 337.04 2.52 336.96 C15.9 336.49 28.11 335.08 37.96 325.19 C45.21 316.16 44.79 301.73 44.78 290.68 C44.79 289.64 44.79 288.6 44.79 287.53 C44.8 284.06 44.8 280.58 44.8 277.11 C44.81 274.61 44.81 272.12 44.82 269.62 C44.83 262.85 44.84 256.08 44.84 249.3 C44.85 245.07 44.85 240.83 44.85 236.59 C44.87 224.84 44.88 213.09 44.88 201.34 C44.88 200.59 44.88 199.84 44.88 199.06 C44.88 198.31 44.88 197.56 44.88 196.78 C44.88 195.25 44.88 193.73 44.88 192.2 C44.88 191.83 44.88 191.83 44.88 189.91 C44.89 177.67 44.91 165.43 44.93 153.19 C44.95 140.59 44.96 127.99 44.97 115.4 C44.97 108.33 44.97 101.27 44.99 94.21 C45.01 87.56 45.01 80.91 45 74.26 C45 71.83 45 69.41 45.01 66.98 C45.16 29.14 45.16 29.14 36.64 20.25 C28.34 12.36 19.34 10.84 8.21 10.69 C6.25 10.65 4.29 10.61 2.33 10.56 C1.48 10.55 0.63 10.53 -0.25 10.52 C-2.36 10.25 -2.36 10.25 -4.36 8.25 C-4.61 5.25 -4.61 5.25 -4.36 2.25 C-2.36 0.25 -2.36 0.25 0 0 Z M115.35 20.79 C113.32 21.06 111.29 21.31 109.26 21.56 C107.97 21.73 106.67 21.9 105.34 22.08 C104.76 22.16 104.76 22.16 101.81 22.54 C98.4 23.3 96.4 24.12 93.64 26.25 C93.02 28.8 93.02 28.8 93.02 31.9 C93.01 33.08 93 34.26 92.99 35.47 C93 36.77 93.01 38.06 93.03 39.39 C93.02 40.77 93.02 42.14 93.01 43.52 C93 47.25 93.01 50.99 93.04 54.72 C93.06 58.63 93.05 62.54 93.05 66.44 C93.05 73 93.07 79.56 93.1 86.12 C93.14 93.71 93.15 101.3 93.14 108.89 C93.13 116.19 93.14 123.48 93.16 130.78 C93.17 133.88 93.17 136.99 93.17 140.1 C93.17 143.75 93.19 147.41 93.21 151.07 C93.22 153.05 93.22 155.04 93.21 157.02 C93.23 158.2 93.24 159.38 93.25 160.59 C93.25 161.62 93.26 162.64 93.26 163.7 C93.64 166.25 93.64 166.25 94.93 168.08 C98 170.18 101.68 169.68 105.27 169.62 C106.14 169.61 107.02 169.6 107.92 169.59 C134.49 168.99 161.69 164.82 182.64 147.25 C183.46 146.59 184.27 145.94 185.1 145.26 C193.79 137.91 199.79 128.95 203.64 118.25 C204.02 117.22 204.39 116.19 204.77 115.13 C211.1 94.98 208.58 73.65 199.05 54.98 C190.96 40.25 176.85 28.54 160.73 23.67 C145.12 19.28 131.41 18.63 115.35 20.79 Z "/>
<path fill="#b32025" transform="translate(630.8921473659575,493.87532883509994)" d="M0 0 C1.31 0 2.63 0 3.98 0 C4.34 -0 4.34 -0 6.2 -0 C8.68 -0.01 11.17 -0 13.66 0 C15.46 0 17.25 -0 19.05 -0 C24.03 -0 29.01 -0 33.99 0 C39.39 0.01 44.79 0 50.19 0 C59.67 -0 69.15 0 78.63 0.01 C92.72 0.01 106.82 0.01 120.91 0.01 C144.62 0.01 168.33 0.01 192.04 0.02 C215.53 0.02 239.01 0.03 262.5 0.03 C262.86 0.03 262.86 0.03 264.71 0.03 C271.36 0.03 278.02 0.03 284.68 0.03 C301.22 0.03 317.77 0.03 334.32 0.03 C335.07 0.03 335.83 0.03 336.6 0.03 C373.28 0.04 409.97 0.04 446.65 0.05 C459.38 0.05 472.11 0.05 484.84 0.06 C485.24 0.06 485.24 0.06 487.24 0.06 C523.93 0.06 560.62 0.07 597.32 0.07 C599.7 0.07 602.08 0.07 604.46 0.07 C620.24 0.07 636.03 0.07 651.81 0.07 C683.21 0.08 714.62 0.08 746.02 0.08 C747.52 0.08 749.01 0.08 750.51 0.08 C833.5 0.09 916.49 0.1 1049.11 0.12 C1049.67 2.06 1049.67 2.06 1050.11 4.12 C1049.11 5.12 1049.11 5.12 1046.22 5.25 C1045.56 5.25 1045.56 5.25 1042.24 5.25 C1041.87 5.25 1041.87 5.25 1040.02 5.25 C1037.53 5.26 1035.04 5.25 1032.56 5.25 C1030.76 5.25 1028.96 5.25 1027.17 5.25 C1022.19 5.25 1017.21 5.25 1012.23 5.25 C1006.83 5.24 1001.43 5.25 996.03 5.25 C986.55 5.25 977.07 5.25 967.59 5.24 C953.49 5.24 939.4 5.24 925.3 5.24 C901.59 5.24 877.88 5.24 854.18 5.23 C830.69 5.22 807.2 5.22 783.72 5.22 C782.99 5.22 782.26 5.22 781.51 5.22 C774.85 5.22 768.2 5.22 761.54 5.22 C744.99 5.22 728.44 5.22 711.9 5.22 C711.14 5.22 710.39 5.22 709.61 5.22 C672.93 5.21 636.25 5.21 599.57 5.2 C586.84 5.2 574.1 5.2 561.37 5.19 C560.98 5.19 560.98 5.19 558.98 5.19 C522.29 5.19 485.59 5.18 448.9 5.18 C446.52 5.18 444.13 5.18 441.75 5.18 C425.97 5.18 410.19 5.18 394.41 5.18 C363 5.17 331.6 5.17 300.19 5.17 C298.7 5.17 297.2 5.17 295.71 5.17 C212.72 5.16 129.72 5.15 -2.89 5.12 C-3.45 3.19 -3.45 3.19 -3.89 1.12 C-2.89 0.12 -2.89 0.12 0 0 Z "/>
<path fill="#b32025" transform="translate(627,597)" d="M0 0 C347.82 0 695.64 0 1054 0 C1053.67 1.65 1053.34 3.3 1053 5 C705.84 5 358.68 5 1 5 C0.84 4.17 0.84 4.17 0 0 Z "/>
</svg>
